<?xml version="1.0" encoding="UTF-8" standalone="no"?>
<svg width="11px" height="11px" viewBox="0 0 11 11" version="1.1" xmlns="http://www.w3.org/2000/svg" xmlns:xlink="http://www.w3.org/1999/xlink" xmlns:sketch="http://www.bohemiancoding.com/sketch/ns">
    <!-- Generator: Sketch 3.2.2 (9983) - http://www.bohemiancoding.com/sketch -->
    <title>Imported Layers</title>
    <desc>Created with Sketch.</desc>
    <defs></defs>
    <g id="Page-1" stroke="none" stroke-width="1" fill="none" fill-rule="evenodd" sketch:type="MSPage">
        <g id="Imported-Layers" sketch:type="MSLayerGroup" fill="#000000">
            <path d="M0.0353375,10.9327625 L10.94005,10.9327625 L10.94005,6.9298625 L9.6127625,6.9298625 L9.6127625,9.5869125 L1.4119875,9.5869125 L1.4119875,1.3481875 L4.0583125,1.3481875 L4.0583125,0.060225 L0.0353375,0.060225 L0.0353375,10.9327625 L0.0353375,10.9327625 Z M6.2225625,6.2332875 C7.180525,5.2454875 8.1151125,4.2818875 9.1647875,3.1997625 C9.7361,3.822775 10.2988875,4.436575 10.9324875,5.1275125 L10.9324875,0.0666875 L5.9868875,0.0666875 C5.9433,0.12815 5.8997125,0.18975 5.856125,0.2512125 C6.4981125,0.7957125 7.1401,1.34035 7.865825,1.956075 C6.78865,2.9943375 5.8199625,3.927825 4.8291375,4.882625 C5.2712,5.311075 5.680675,5.7080375 6.2225625,6.2332875 L6.2225625,6.2332875 Z" id="Fill-1" sketch:type="MSShapeGroup"></path>
            <path d="M0.0353375,10.9327625 L0.0353375,0.060225 L4.0583125,0.060225 L4.0583125,1.3481875 L1.4119875,1.3481875 L1.4119875,9.5869125 L9.6127625,9.5869125 L9.6127625,6.9298625 L10.94005,6.9298625 L10.94005,10.9327625 L0.0353375,10.9327625" id="Fill-2" sketch:type="MSShapeGroup"></path>
            <path d="M6.2225625,6.2332875 C5.680675,5.7080375 5.2712,5.311075 4.8291375,4.882625 C5.8199625,3.927825 6.78865,2.9943375 7.865825,1.956075 C7.1401,1.34035 6.4981125,0.7957125 5.856125,0.2512125 C5.8997125,0.18975 5.9433,0.12815 5.9868875,0.0666875 L10.9324875,0.0666875 L10.9324875,5.1275125 C10.2988875,4.436575 9.7361,3.822775 9.1647875,3.1997625 C8.1151125,4.2818875 7.180525,5.2454875 6.2225625,6.2332875" id="Fill-3" sketch:type="MSShapeGroup"></path>
        </g>
    </g>
</svg>